:SAMPLES-PER-SECOND 30
:FULLY-SPECIFIED
:DEGREES
410
root  -5.76626 19.7967 69.6871 24.5072 -2.81643 16.5402
RightUpLeg  -39.2279 -9.34214 -0.679016
RightLeg  126.316 25.078 -12.0004
RightFoot  -25.0362 1.06067 9.44362
RightToes  5.82077e-011 -3.18055e-015 -2.98177e-016
Spine  48.6933 2.79844 -0.875831
Spine1  5.00762 0.328547 1.84201
HEad  -17.0136 7.46221 3.61299
LeftShoulder1  -3.88251e-019 9.70628e-020 -3.87848e-018
LeftArm  12.9533 -37.0879 -73.1157
LeftForeArm  23.25 -7.69111 -6.65694
LeftHand  0.232581 -4.76023 -2.52897
RightShoulder  3.39617 11.842 11.5578
RightArm  -2.56658 12.9871 59.2255
RightForeArm  11.5389 2.7182 -5.96843
RightHand  -13.2338 10.7661 -79.3102
LeftUpLeg  -98.8538 -6.99964 -19.211
LeftLeg  112.274 -22.6385 19.1067
LeftFoot  -37.637 -1.49985 -6.41648
LeftToes  9.37148e-011 4.50685e-012 -4.11107e-011
411
root  -5.53928 19.6868 69.5615 23.1245 -2.66202 16.2354
RightUpLeg  -37.4669 -9.50499 -1.37386
RightLeg  126.903 24.9579 -11.6389
RightFoot  -26.0173 1.0898 8.93623
RightToes  5.82077e-011 -3.18055e-015 -2.98177e-016
Spine  49.4079 2.68245 -0.0464239
Spine1  4.44984 0.343986 1.44195
HEad  -17.6673 7.00295 4.35325
LeftShoulder1  -3.88251e-019 9.70628e-020 -3.87848e-018
LeftArm  11.2208 -36.8547 -73.9303
LeftForeArm  23.1107 -8.55364 -5.99485
LeftHand  0.225704 -4.59047 -2.50417
RightShoulder  3.47675 11.9242 11.8979
RightArm  -2.91118 12.6225 58.2174
RightForeArm  11.9561 3.54089 -6.44628
RightHand  -13.1768 10.9268 -78.5085
LeftUpLeg  -98.2079 -6.92636 -19.5462
LeftLeg  112.764 -22.7152 18.8987
LeftFoot  -37.4157 -1.51952 -6.56948
LeftToes  9.37148e-011 4.50685e-012 -4.11107e-011
412
root  -5.31901 19.711 69.3276 21.7147 -2.17098 16.0731
RightUpLeg  -36.3344 -9.54394 -2.15733
RightLeg  127.406 24.6247 -11.0736
RightFoot  -26.0308 1.04321 8.51333
RightToes  5.82077e-011 -3.18055e-015 -2.98177e-016
Spine  50.3764 2.22226 1.20429
Spine1  4.0163 0.642228 0.358893
HEad  -18.6239 5.78532 5.35639
LeftShoulder1  -3.88251e-019 9.70628e-020 -3.87848e-018
LeftArm  9.89376 -36.4073 -74.8974
LeftForeArm  20.3411 -11.1789 -5.4202
LeftHand  0.217654 -4.92406 -2.30465
RightShoulder  3.59683 11.9305 12.535
RightArm  -3.10875 12.6611 56.7287
RightForeArm  11.8006 3.09976 -6.35154
RightHand  -12.9832 10.8799 -77.8329
LeftUpLeg  -97.1381 -6.92532 -20.1357
LeftLeg  112.851 -22.5026 18.4701
LeftFoot  -37.5563 -1.60624 -6.93337
LeftToes  9.37148e-011 4.50685e-012 -4.11107e-011
413
root  -5.13685 19.8554 68.9192 20.3484 -1.50436 15.9298
RightUpLeg  -36.3545 -9.48542 -2.58448
RightLeg  127.959 24.4945 -10.7329
RightFoot  -24.9559 0.946635 8.40464
RightToes  5.82077e-011 -3.18055e-015 -2.98177e-016
Spine  51.7185 1.89078 2.51752
Spine1  3.24202 1.52305 -0.779913
HEad  -19.6449 3.7243 6.269
LeftShoulder1  -3.88251e-019 9.70628e-020 -3.87848e-018
LeftArm  10.3807 -35.2882 -76.3043
LeftForeArm  15.2742 -15.3269 -5.01362
LeftHand  0.269811 -5.58239 -2.70005
RightShoulder  3.78996 11.9506 13.5429
RightArm  -3.28197 12.685 54.4273
RightForeArm  11.1625 1.71171 -5.78513
RightHand  -12.5973 10.5912 -77.1305
LeftUpLeg  -96.3352 -6.83298 -20.9455
LeftLeg  112.166 -22.1912 18.3749
LeftFoot  -36.7729 -1.3572 -5.96404
LeftToes  9.37148e-011 4.50685e-012 -4.11107e-011
414
root  -4.96623 20.0353 68.4078 19.0297 -0.700882 15.7897
RightUpLeg  -37.142 -9.6696 -2.71632
RightLeg  128.632 24.6834 -10.7158
RightFoot  -23.3017 0.831713 8.55653
RightToes  5.82077e-011 -3.18055e-015 -2.98177e-016
Spine  53.121 1.87211 3.84167
Spine1  2.18701 2.87946 -1.56706
HEad  -20.7016 1.02296 6.70225
LeftShoulder1  -3.88251e-019 9.70628e-020 -3.87848e-018
LeftArm  16.1408 -33.6267 -78.3189
LeftForeArm  7.26051 -20.2523 -3.42602
LeftHand  0.311752 -6.31515 -2.92896
RightShoulder  4.08101 11.9953 15.0326
RightArm  -3.78179 12.2761 51.1285
RightForeArm  10.9625 0.460981 -5.47118
RightHand  -12.0432 10.246 -75.8204
LeftUpLeg  -95.7498 -6.42183 -22.0675
LeftLeg  111.065 -21.6418 18.1217
LeftFoot  -35.2169 -0.748013 -3.34787
LeftToes  9.37148e-011 4.50685e-012 -4.11107e-011
415
root  -4.75209 19.9459 68.1566 17.3945 -0.272241 15.3171
RightUpLeg  -35.9456 -10.0165 -2.98991
RightLeg  129.357 24.8643 -10.6672
RightFoot  -23.3142 0.865593 8.92667
RightToes  5.82077e-011 -3.18055e-015 -2.98177e-016
Spine  53.8353 2.48914 5.43499
Spine1  1.12501 4.45183 -2.21669
HEad  -22.0819 -1.73129 6.67576
LeftShoulder1  -3.88251e-019 9.70628e-020 -3.87848e-018
LeftArm  25.0062 -31.844 -80.5695
LeftForeArm  -1.41425 -24.4397 0.339398
LeftHand  0.221362 -7.30743 -1.81382
RightShoulder  4.41219 12.0317 16.7283
RightArm  -4.45287 11.6975 47.0707
RightForeArm  12.0384 -0.681897 -5.45411
RightHand  -11.3306 9.90047 -73.6631
LeftUpLeg  -94.8426 -6.55675 -22.3088
LeftLeg  111.045 -21.8373 18.5021
LeftFoot  -34.8609 -0.524731 -2.23937
LeftToes  9.37148e-011 4.50685e-012 -4.11107e-011
416
root  -4.51727 19.8356 67.9495 15.5372 -0.0336451 14.8353
RightUpLeg  -34.3037 -10.3249 -3.42151
RightLeg  129.908 25.1578 -10.7932
RightFoot  -23.4941 0.926023 9.43171
RightToes  5.82077e-011 -3.18055e-015 -2.98177e-016
Spine  54.2773 2.98846 6.77808
Spine1  0.651764 5.74944 -3.04409
HEad  -23.8297 -3.48557 6.53546
LeftShoulder1  -3.88251e-019 9.70628e-020 -3.87848e-018
LeftArm  29.4088 -29.6448 -81.7058
LeftForeArm  -6.23628 -27.3016 4.09275
LeftHand  0.0419781 -8.33138 -0.0550184
RightShoulder  4.60488 12.1912 17.5213
RightArm  -5.2485 10.9431 43.7602
RightForeArm  14.417 -2.62841 -5.45692
RightHand  -10.2423 9.32208 -70.2152
LeftUpLeg  -93.6105 -6.90892 -22.4083
LeftLeg  111.134 -22.2707 19.2468
LeftFoot  -34.92 -0.461056 -1.89812
LeftToes  9.37148e-011 4.50685e-012 -4.11107e-011
417
root  -4.27346 19.7278 67.7281 13.9621 0.534522 14.1602
RightUpLeg  -32.8664 -10.8548 -3.58872
RightLeg  130.401 25.4315 -10.9114
RightFoot  -23.7341 0.955655 9.52919
RightToes  5.82077e-011 -3.18055e-015 -2.98177e-016
Spine  54.152 2.65242 7.71541
Spine1  0.287338 5.98555 -4.23842
HEad  -25.5151 -3.30032 6.48705
LeftShoulder1  -3.88251e-019 9.70628e-020 -3.87848e-018
LeftArm  27.2103 -26.922 -78.7557
LeftForeArm  -8.57152 -30.01 6.19183
LeftHand  -0.0667318 -8.83407 0.873612
RightShoulder  4.4832 12.6695 16.2463
RightArm  -6.62427 8.90911 43.1908
RightForeArm  17.8213 -4.56169 -6.10532
RightHand  -8.60645 8.51872 -63.8838
LeftUpLeg  -92.8657 -7.74594 -22.2364
LeftLeg  111.044 -22.7832 20.2541
LeftFoot  -34.5083 -0.417439 -1.71213
LeftToes  9.37148e-011 4.50685e-012 -4.11107e-011
418
root  -4.01819 19.6545 67.5429 12.3994 1.10563 13.603
RightUpLeg  -31.2635 -11.2231 -4.20597
RightLeg  130.819 25.3978 -10.7336
RightFoot  -23.9362 0.910987 8.86269
RightToes  5.82077e-011 -3.18055e-015 -2.98177e-016
Spine  53.3317 2.52927 8.2598
Spine1  0.353783 6.15786 -5.54523
HEad  -27.0194 -3.45738 6.88819
LeftShoulder1  -3.88251e-019 9.70628e-020 -3.87848e-018
LeftArm  24.3138 -23.2969 -79.3081
LeftForeArm  -9.74761 -31.7761 6.47671
LeftHand  -0.133807 -8.80734 1.43482
RightShoulder  4.54896 12.5232 16.779
RightArm  -6.47219 6.91588 41.3159
RightForeArm  21.6905 -2.78588 -6.53282
RightHand  -6.68511 7.96844 -53.4541
LeftUpLeg  -91.9677 -8.7333 -22.2197
LeftLeg  110.714 -23.2673 21.386
LeftFoot  -33.8991 -0.442609 -1.9102
LeftToes  9.37148e-011 4.50685e-012 -4.11107e-011
419
root  -3.73421 19.661 67.4563 11.1171 1.73531 13.1925
RightUpLeg  -29.4745 -11.599 -5.19887
RightLeg  130.54 25.123 -10.5444
RightFoot  -24.0098 0.823674 7.88229
RightToes  5.82077e-011 -3.18055e-015 -2.98177e-016
Spine  51.5964 2.39543 7.93948
Spine1  0.623119 5.67324 -6.26565
HEad  -27.7741 -3.14513 7.24996
LeftShoulder1  -3.88251e-019 9.70628e-020 -3.87848e-018
LeftArm  21.5679 -19.1196 -76.2886
LeftForeArm  -11.9616 -31.9971 6.45062
LeftHand  -0.304212 -8.56322 2.90203
RightShoulder  4.75619 12.2111 18.2695
RightArm  -4.73085 4.65161 39.2771
RightForeArm  27.8311 2.30499 -6.90837
RightHand  -5.01712 8.22696 -40.8078
LeftUpLeg  -90.7487 -9.87389 -22.4666
LeftLeg  110.169 -23.6741 22.56
LeftFoot  -33.5634 -0.491762 -2.21766
LeftToes  9.37148e-011 4.50685e-012 -4.11107e-011
420
root  -3.46427 19.7671 67.5096 10.2176 2.19478 12.5978
RightUpLeg  -26.9079 -12.0632 -6.02776
RightLeg  128.868 24.7507 -10.7129
RightFoot  -25.0223 0.82006 7.13559
RightToes  5.82077e-011 -3.18055e-015 -2.98177e-016
Spine  48.7375 2.47444 6.69092
Spine1  1.12095 4.63255 -5.87576
HEad  -27.8398 -2.09928 7.39814
LeftShoulder1  -3.88251e-019 9.70628e-020 -3.87848e-018
LeftArm  19.6851 -14.3239 -74.0576
LeftForeArm  -12.9875 -30.3422 5.91464
LeftHand  -0.548438 -8.37662 5.05484
RightShoulder  4.93087 11.9691 19.5234
RightArm  -1.46001 2.3558 38.3438
RightForeArm  38.0358 7.1436 -6.47192
RightHand  -4.00812 9.74398 -30.0801
LeftUpLeg  -89.3109 -10.5538 -22.662
LeftLeg  109.614 -23.9898 23.6015
LeftFoot  -33.7015 -0.444819 -1.94444
LeftToes  9.37148e-011 4.50685e-012 -4.11107e-011
421
root  -3.26606 20.0416 67.6427 9.42656 2.1595 11.9847
RightUpLeg  -23.2374 -12.2965 -7.0793
RightLeg  125.96 23.8796 -10.6929
RightFoot  -28.1722 0.96305 6.62185
RightToes  5.82077e-011 -3.18055e-015 -2.98177e-016
Spine  45.1907 3.12512 4.62504
Spine1  1.93018 3.69778 -4.60846
HEad  -27.9931 -1.15609 7.32517
LeftShoulder1  -3.88251e-019 9.70628e-020 -3.87848e-018
LeftArm  15.2522 -9.38902 -72.0962
LeftForeArm  -10.0029 -26.8789 3.67051
LeftHand  -0.71578 -8.08323 6.64003
RightShoulder  4.90828 11.602 19.9554
RightArm  2.35522 -0.187755 38.9808
RightForeArm  51.1028 9.09233 -4.84717
RightHand  -3.71907 12.3548 -23.9624
LeftUpLeg  -87.4065 -10.2249 -22.7906
LeftLeg  108.898 -23.9515 24.1672
LeftFoot  -34.0819 -0.346404 -1.37001
LeftToes  9.37148e-011 4.50685e-012 -4.11107e-011
422
root  -3.11959 20.4856 67.8065 8.93288 1.69483 11.6156
RightUpLeg  -19.373 -12.0019 -8.76379
RightLeg  122.757 21.9761 -9.26663
RightFoot  -33.3206 1.1928 6.09593
RightToes  5.82077e-011 -3.18055e-015 -2.98177e-016
Spine  41.7956 3.91118 2.43306
Spine1  1.89556 3.15257 -3.93276
HEad  -28.6493 -0.893169 7.05696
LeftShoulder1  -3.88251e-019 9.70628e-020 -3.87848e-018
LeftArm  3.75771 -4.4001 -70.6154
LeftForeArm  0.980919 -21.9216 -1.53126
LeftHand  -0.760215 -7.66417 7.24715
RightShoulder  4.8407 11.1645 20.2738
RightArm  5.42202 -3.70948 40.4183
RightForeArm  62.0972 8.78215 -2.63938
RightHand  -3.55442 14.3594 -20.6698
LeftUpLeg  -85.2841 -9.32561 -22.9617
LeftLeg  107.849 -23.4707 24.2256
LeftFoot  -34.6074 -0.361604 -1.40649
LeftToes  9.37148e-011 4.50685e-012 -4.11107e-011
423
root  -2.97943 21.0277 67.9861 9.05215 1.06525 11.2721
RightUpLeg  -16.632 -11.1259 -10.3256
RightLeg  119.798 19.4002 -6.24923
RightFoot  -38.6186 1.36295 5.45596
RightToes  5.82077e-011 -3.18055e-015 -2.98177e-016
Spine  39.2279 4.14821 1.02916
Spine1  0.239148 2.79187 -4.73509
HEad  -29.8832 -0.806816 6.73635
LeftShoulder1  -3.88251e-019 9.70628e-020 -3.87848e-018
LeftArm  -6.60459 0.861273 -69.2182
LeftForeArm  9.96214 -15.767 -4.71543
LeftHand  -0.751763 -7.33442 7.35069
RightShoulder  5.01804 10.968 21.5416
RightArm  7.51501 -7.87236 41.0947
RightForeArm  67.7061 8.52611 -0.750467
RightHand  -3.0134 14.8929 -17.1545
LeftUpLeg  -83.5153 -8.3595 -23.1061
LeftLeg  106.463 -22.7696 24.1561
LeftFoot  -35.2663 -0.419625 -1.6534
LeftToes  9.37148e-011 4.50685e-012 -4.11107e-011
424
root  -2.83702 21.6678 68.1366 9.52664 0.250245 10.3913
RightUpLeg  -15.4447 -9.55555 -10.5216
RightLeg  116.727 17.1772 -2.93692
RightFoot  -42.2727 1.42359 4.92209
RightToes  5.82077e-011 -3.18055e-015 -2.98177e-016
Spine  37.4632 3.85696 0.730678
Spine1  -1.84325 2.55515 -6.15524
HEad  -31.824 -0.173151 6.4281
LeftShoulder1  -3.88251e-019 9.70628e-020 -3.87848e-018
LeftArm  -10.5961 6.20682 -67.8627
LeftForeArm  11.1615 -10.5192 -4.71917
LeftHand  -0.71481 -6.86962 7.26182
RightShoulder  5.52485 11.0428 24.1256
RightArm  9.85032 -11.0644 39.7736
RightForeArm  68.8581 10.1445 0.592584
RightHand  -2.3972 14.7094 -13.8699
LeftUpLeg  -82.1533 -7.35487 -22.6243
LeftLeg  104.613 -22.0163 24.415
LeftFoot  -35.6601 -0.364419 -1.34016
LeftToes  9.37148e-011 4.50685e-012 -4.11107e-011
